<svg width="22" height="22" viewBox="0 0 22 22" fill="none" xmlns="http://www.w3.org/2000/svg">
<g clip-path="url(#clip0_517_128820)">
<path d="M20.1663 10.1567V11C20.1652 12.9767 19.5251 14.9001 18.3416 16.4833C17.158 18.0666 15.4944 19.2248 13.5988 19.7852C11.7032 20.3457 9.67716 20.2784 7.82294 19.5934C5.96872 18.9083 4.38561 17.6423 3.30972 15.984C2.23384 14.3257 1.72282 12.3641 1.85288 10.3916C1.98294 8.41919 2.74711 6.54164 4.03143 5.03899C5.31575 3.53634 7.05139 2.48911 8.97951 2.05348C10.9076 1.61784 12.9249 1.81715 14.7305 2.62168" stroke="#3470FF" stroke-width="1.8" stroke-linecap="round" stroke-linejoin="round"/>
<path d="M20.1667 3.66667L11 12.8425L8.25 10.0925" stroke="#3470FF" stroke-width="1.8" stroke-linecap="round" stroke-linejoin="round"/>
</g>
<defs>
<clipPath id="clip0_517_128820">
<rect width="22" height="22" fill="white"/>
</clipPath>
</defs>
</svg>
