<svg width="34" height="34" viewBox="0 0 34 34" fill="none" xmlns="http://www.w3.org/2000/svg">
<path d="M11.4093 0.454586L16.3927 1.89555C16.7529 1.99971 17.1351 2.00051 17.4958 1.89784L22.6276 0.43701C23.5256 0.181385 24.481 0.5811 24.9294 1.40004L27.5925 6.26347C27.7711 6.58977 28.0373 6.85977 28.361 7.04313L32.5961 9.44213C33.4154 9.90619 33.8 10.8788 33.5197 11.7777L32.0526 16.4826C31.9324 16.8683 31.9317 17.2814 32.0508 17.6674L33.5325 22.4712C33.8063 23.359 33.4328 24.3184 32.6307 24.7873L27.9098 27.547C27.5877 27.7354 27.3246 28.01 27.1504 28.34L24.9049 32.5941C24.4704 33.4172 23.5256 33.8318 22.6258 33.5943L17.4584 32.2303C17.1212 32.1413 16.7667 32.142 16.43 32.2323L11.4206 33.5755C10.4999 33.8223 9.53288 33.3851 9.1101 32.5307L6.87213 28.0083C6.68428 27.6287 6.38076 27.3185 6.00532 27.1225L1.43198 24.7345C0.596566 24.2983 0.179039 23.3381 0.429761 22.4296L1.76343 17.5971C1.85784 17.255 1.85953 16.894 1.76833 16.551L0.400176 11.406C0.164851 10.521 0.560595 9.58929 1.36085 9.14419L6.05912 6.53098C6.4009 6.34088 6.67944 6.05475 6.86029 5.70799L9.08042 1.45103C9.52064 0.606959 10.4948 0.190151 11.4093 0.454586Z" fill="#3470FF"/>
<path d="M24 13L14.375 22L10 17.9091" stroke="white" stroke-width="2.5" stroke-linecap="round" stroke-linejoin="round"/>
</svg>
