<svg width="40" height="40" viewBox="0 0 40 40" fill="none" xmlns="http://www.w3.org/2000/svg">
<path fill-rule="evenodd" clip-rule="evenodd" d="M20.0004 4.80038C11.6057 4.80038 4.80038 11.6057 4.80038 20.0004C4.80038 28.395 11.6057 35.2003 20.0004 35.2003C28.3952 35.2003 35.2005 28.395 35.2005 20.0004C35.2005 11.6057 28.3952 4.80038 20.0004 4.80038ZM2.40039 20.0004C2.40039 10.2802 10.2802 2.40039 20.0004 2.40039C29.7205 2.40039 37.6005 10.2802 37.6005 20.0004C37.6005 29.7206 29.7205 37.6003 20.0004 37.6003C10.2802 37.6003 2.40039 29.7206 2.40039 20.0004Z" fill="#121417"/>
<path fill-rule="evenodd" clip-rule="evenodd" d="M35.9999 21.0669H4V18.9336H35.9999V21.0669Z" fill="#121417"/>
<path fill-rule="evenodd" clip-rule="evenodd" d="M18.9333 36.0006V4.00065H21.0666V36.0006H18.9333ZM27.6668 20.0006C27.6668 14.2066 25.5832 8.47473 21.4984 4.68481L22.768 3.31641C27.3058 7.52646 29.5335 13.7946 29.5335 20.0006C29.5335 26.2066 27.3058 32.4748 22.768 36.6849L21.4984 35.3164C25.5832 31.5265 27.6668 25.7946 27.6668 20.0006ZM10.666 20.0006C10.666 13.8036 12.8211 7.53873 17.2207 3.32649L18.5116 4.67481C14.5554 8.46259 12.5327 14.1977 12.5327 20.0006C12.5327 25.8036 14.5554 31.5388 18.5116 35.3265L17.2207 36.6748C12.8212 32.4625 10.666 26.1977 10.666 20.0006Z" fill="#121417"/>
<path fill-rule="evenodd" clip-rule="evenodd" d="M19.9997 10.5547C25.7846 10.5547 31.6673 11.6244 35.6548 13.8519C36.1049 14.1033 36.266 14.6719 36.0145 15.1219C35.7633 15.5719 35.1945 15.733 34.7446 15.4816C31.1449 13.4708 25.6211 12.4214 19.9997 12.4214C14.3783 12.4214 8.85456 13.4708 5.25488 15.4816C4.80485 15.733 4.23626 15.5719 3.98488 15.1219C3.73352 14.6719 3.89453 14.1033 4.34456 13.8519C8.33226 11.6244 14.2149 10.5547 19.9997 10.5547ZM19.9997 28.9333C25.7846 28.9333 31.6673 27.8635 35.6548 25.636C36.1049 25.3846 36.266 24.816 36.0145 24.366C35.7633 23.916 35.1945 23.755 34.7446 24.0063C31.1449 26.0171 25.6211 27.0667 19.9997 27.0667C14.3783 27.0667 8.85456 26.0171 5.25488 24.0064C4.80485 23.755 4.23626 23.916 3.98488 24.366C3.73352 24.816 3.89453 25.3846 4.34456 25.636C8.33226 27.8635 14.2149 28.9333 19.9997 28.9333Z" fill="#121417"/>
</svg>
