<svg width="29" height="21" viewBox="0 0 29 21" fill="none" xmlns="http://www.w3.org/2000/svg">
<path fill-rule="evenodd" clip-rule="evenodd" d="M5.16667 0.166748C3.73993 0.166748 2.58333 1.32335 2.58333 2.75008V5.33341H5.16667V4.57677L14.1301 13.5402C14.8867 14.2968 16.1135 14.2968 16.8701 13.5402L25.8333 4.57697V18.2501H5.16667V16.9584H2.58333V18.2501C2.58333 19.6768 3.73993 20.8334 5.16667 20.8334H25.8333C27.2601 20.8334 28.4167 19.6768 28.4167 18.2501V2.75008C28.4167 1.32334 27.2601 0.166748 25.8333 0.166748H5.16667ZM24.0068 2.75008H6.99336L15.5001 11.2568L24.0068 2.75008Z" fill="#C7CAD1"/>
<path d="M2.58333 7.91675C1.86997 7.91675 1.29167 8.49505 1.29167 9.20841C1.29167 9.92178 1.86997 10.5001 2.58333 10.5001H6.45833C7.1717 10.5001 7.75 9.92178 7.75 9.20841C7.75 8.49505 7.1717 7.91675 6.45833 7.91675H2.58333Z" fill="#C7CAD1"/>
<path d="M0 13.0834C0 12.37 0.578299 11.7917 1.29167 11.7917H7.75C8.46337 11.7917 9.04167 12.37 9.04167 13.0834C9.04167 13.7968 8.46337 14.3751 7.75 14.3751H1.29167C0.578299 14.3751 0 13.7968 0 13.0834Z" fill="#C7CAD1"/>
</svg>
