<svg xmlns="http://www.w3.org/2000/svg" version="1.1" xmlnsXlink="http://www.w3.org/1999/xlink" xmlnsSvgjs="http://svgjs.dev/svgjs" width="1000" height="801" viewBox="0 0 1000 801"><g transform="matrix(1,0,0,1,-0.15238639856971758,0.32429149797570744)"><svg viewBox="0 0 308 247" data-background-color="#ffffff" preserveAspectRatio="xMidYMid meet" height="801" width="1000" xmlns="http://www.w3.org/2000/svg" xmlns:xlink="http://www.w3.org/1999/xlink"><g id="tight-bounds" transform="matrix(1,0,0,1,0.04693510232806375,-0.09999999999999432)"><svg viewBox="0 0 307.90612294601294 247.2" height="247.2" width="307.90612294601294"><g><svg viewBox="0 0 395.52 317.5401095129993" height="247.2" width="307.90612294601294"><g transform="matrix(1,0,0,1,0,236.26549772628277)"><svg viewBox="0 0 395.52 81.27461178671656" height="81.27461178671656" width="395.52"><g id="textblocktransform"><svg viewBox="0 0 395.52 81.27461178671656" height="81.27461178671656" width="395.52" id="textblock"><g><svg viewBox="0 0 395.52 81.27461178671656" height="81.27461178671656" width="395.52"><g transform="matrix(1,0,0,1,0,0)"><svg width="395.52" viewBox="0.9500000476837158 -32.5 160.33999633789062 32.95000076293945" height="81.27461178671656" data-palette-color="#ed1703"><path d="M23.55-32.1L23.85-31.65 23.55-27.75 17.75-28.05 15.05-28.05 14.8-10.1 15.05 0 9.85 0 10.15-9.65 9.9-28.05 7.2-28.05 1.3-27.75 0.95-28.2 1.35-32.1 23.55-32.1ZM39.35-32.5Q46-32.5 49.6-28.4 53.2-24.3 53.2-16.7L53.2-16.7Q53.2-8.5 49.35-4.03 45.5 0.45 38.4 0.45L38.4 0.45Q31.8 0.45 28.22-3.78 24.65-8 24.65-15.75L24.65-15.75Q24.65-23.8 28.47-28.15 32.3-32.5 39.35-32.5L39.35-32.5ZM38.95-28.3Q34.4-28.3 32.17-25.38 29.95-22.45 29.95-16.35L29.95-16.35Q29.95-9.7 32.12-6.63 34.3-3.55 38.85-3.55L38.85-3.55Q43.45-3.55 45.65-6.5 47.85-9.45 47.85-15.7L47.85-15.7Q47.85-22.25 45.67-25.28 43.5-28.3 38.95-28.3L38.95-28.3ZM68.59-32.45Q72.4-32.45 76.2-30.85L76.2-30.85 75.34-26.15 74.55-25.85Q72.95-27 71.25-27.65 69.55-28.3 68-28.3L68-28.3Q65.55-28.3 64.09-26.95 62.65-25.6 62.65-23.8L62.65-23.8Q62.65-22.05 64.09-20.93 65.55-19.8 68.65-18.35L68.65-18.35Q71.34-17.05 73.02-16 74.7-14.95 75.9-13.23 77.09-11.5 77.09-9.1L77.09-9.1Q77.09-6.5 75.67-4.33 74.25-2.15 71.67-0.88 69.09 0.4 65.8 0.4L65.8 0.4Q63.6 0.4 61.25-0.15 58.9-0.7 56.8-1.75L56.8-1.75 57.45-6.85 58.1-7.15Q59.95-5.4 62.17-4.53 64.4-3.65 66.3-3.65L66.3-3.65Q68.9-3.65 70.45-5.03 72-6.4 72-8.3L72-8.3Q72-10.2 70.5-11.38 69-12.55 65.9-14L65.9-14Q63.25-15.25 61.6-16.28 59.95-17.3 58.77-19 57.6-20.7 57.6-23.1L57.6-23.1Q57.6-25.7 59-27.85 60.4-30 62.9-31.23 65.4-32.45 68.59-32.45L68.59-32.45ZM95.39-32.45Q100.29-32.45 104.04-30.25L104.04-30.25 103.09-25.7 102.59-25.55Q99.24-28.15 95.19-28.15L95.19-28.15Q90.79-28.15 88.47-25.18 86.14-22.2 86.14-16.3L86.14-16.3Q86.14-10.25 88.49-7.1 90.84-3.95 95.19-3.95L95.19-3.95Q97.29-3.95 99.37-4.67 101.44-5.4 103.19-6.7L103.19-6.7 103.69-6.4 103.29-1.7Q98.99 0.4 94.79 0.4L94.79 0.4Q88.04 0.4 84.39-3.8 80.74-8 80.74-15.75L80.74-15.75Q80.74-23.75 84.57-28.1 88.39-32.45 95.39-32.45L95.39-32.45ZM122.94-32.1L133.29 0 127.99 0 127.24-3.6 125.84-8.05 119.04-8.2 112.89-8.05 111.39-3.85 110.59 0 105.44 0 116.89-32.1 122.94-32.1ZM119.39-12.15L124.54-12.25 119.94-27.05 119.59-27.05 114.34-12.25 119.39-12.15ZM153.24-12.85Q156.64-7.4 161.29-1.2L161.29-1.2 161.24-0.6Q158.84 0.2 156.29 0.45L156.29 0.45 155.69 0.05Q151.54-6.75 148.99-11.45L148.99-11.45 143.54-11.45 143.54-10.1 143.79 0 138.54 0 138.89-9.65 138.54-32.1 149.44-32.15Q154.29-32.15 156.94-29.73 159.59-27.3 159.59-22.8L159.59-22.8Q159.59-19.6 157.91-17.03 156.24-14.45 153.24-12.85L153.24-12.85ZM143.79-27.95L143.64-15.65 149.14-15.5Q154.19-17.05 154.19-22.4L154.19-22.4Q154.19-25.2 152.66-26.6 151.14-28 148.04-28.1L148.04-28.1 143.79-27.95Z" opacity="1" transform="matrix(1,0,0,1,0,0)" fill="#ed1703" class="undefined-text-0" data-fill-palette-color="primary" id="text-0"></path></svg></g></svg></g></svg></g></svg></g><g transform="matrix(1,0,0,1,98.8142363890195,0)"><svg viewBox="0 0 197.89152722196098 197.89152722196098" height="197.89152722196098" width="197.89152722196098"><g><svg></svg></g><g id="icon-0"><svg viewBox="0 0 197.89152722196098 197.89152722196098" height="197.89152722196098" width="197.89152722196098"><g><path d="M0 98.946c0-54.646 44.3-98.946 98.946-98.946 54.646 0 98.946 44.3 98.946 98.946 0 54.646-44.3 98.946-98.946 98.946-54.646 0-98.946-44.3-98.946-98.946zM98.946 190.562c50.598 0 91.616-41.018 91.616-91.616 0-50.598-41.018-91.616-91.616-91.617-50.598 0-91.616 41.018-91.617 91.617 0 50.598 41.018 91.616 91.617 91.616z" data-fill-palette-color="tertiary" fill="#ed1703" stroke="transparent"></path></g><g transform="matrix(1,0,0,1,41.686032325494125,83.18887636354935)"><svg viewBox="0 0 114.51946257097273 31.513774494862275" height="31.513774494862275" width="114.51946257097273"><g><svg xmlns="http://www.w3.org/2000/svg" xmlns:xlink="http://www.w3.org/1999/xlink" version="1.1" x="0" y="0" viewBox="6.195000171661377 40.16899871826172 91.96798706054688 25.307998657226562" enable-background="new 0 0 100 100" xml:space="preserve" height="31.513774494862275" width="114.51946257097273" class="icon-s-0" data-fill-palette-color="accent" id="s-0"><path d="M69.167 52.73l-5.141-1.101-0.615 1.028-3.165 5.481 1.168-0.103 2.268-0.206 0.051-0.004 1.077-1.011-0.987 0.888 1.079-0.973L69.167 52.73zM76.231 53.52l0.163-0.444 0.287-0.582 0.012-0.024 0.16-0.227 0.034-0.062 0.423-0.604 0.09-0.106 0.014-0.019 0.012-0.011 0.348-0.409 0.484-0.473 0.504-0.421 1.008-0.644 0.021-0.013 1.01-0.462 0.925-0.287 0.405-0.074-5.466-2.126-0.796 0.517-0.932 0.704-1.781 1.523-1.711 1.657-0.008 0.008-1.212 1.397 3.323 0.667L76.231 53.52zM81.157 45.641l2.315-0.081 2.39 0.021 2.502 0.143 2.615 0.267 0.686 0.11-1.915-0.49-2.118-0.337-2.202-0.184-2.242-0.062-2.275 0.031-2.244 0.093-2.172 0.111-1.132 0.061 0.354 0.157 0.551 0.31 0.455 0.227 2.175-0.214L81.157 45.641zM40.167 46.223l0.603 0.258c0.068 0.022 0.115 0.086 0.115 0.162 0 0-0.002 0.021-0.002 0.022l-0.048 0.545-0.003 0.113 0.616-0.05 0.42-0.055v-0.359c0-0.101 0.084-0.183 0.183-0.183l0.908-0.028 0.535-0.034 0.051-0.217 0.041-0.293-0.026 0.024-0.021-0.291-0.015-0.084-0.41-0.1-0.59-0.072h-0.631l-0.364 0.017-0.308 0.04 0.026 0.011-0.643 0.328L40.167 46.223zM10.474 59.712l-0.034 0.003 0.002-0.005L10.474 59.712l0.01-0.01 0.006-0.011-0.041 0.01-0.007 0.008 0.004-0.007-2.083 0.492c-0.427 0.62-0.252 1.035-0.283 1.605l1.203-1.029L10.474 59.712zM8.836 59.604l1.846-0.437c0.003-0.001 0.008-0.001 0.011-0.002l-0.003-0.016-0.014-0.059-0.033-0.052-0.013 0.025-0.165-0.187-0.518-0.652c-0.027 0.004-0.054 0.009-0.084 0.009H8.025C8.401 58.679 9.168 59.064 8.836 59.604zM32.209 50.999l-1.112-0.551-1.135-0.407-1.115-0.286-1.012-0.165-0.849-0.08-0.348-0.021h-0.276c-0.024 0-0.045-0.012-0.067-0.021l-0.182 0.361c2.361-0.125 4.72 0.765 6.191 2.696 0.03-0.029 0.066-0.051 0.108-0.051l1.375-0.156L33.195 51.7l0.002-0.003-0.481-0.38-0.498-0.355-0.001 0.004 0.007 0.007-0.008-0.004L32.209 50.999zM25.68 49.869c0-0.002-0.002-0.004-0.002-0.007 0-0.031 0.004-0.063 0.021-0.09l0.182-0.363-0.406 0.007-0.908 0.113-0.828 0.204-0.755 0.276-0.704 0.325-0.622 0.385-0.576 0.429-0.522 0.425 0.021 0.007-0.006 0.006h0.001l-0.891 0.979-0.694 0.951-0.513 0.848-0.204 0.356-0.104 0.142-0.063 0.125 0.025-0.007-0.665 3.304c-0.011 0.06-0.05 0.111-0.109 0.134l-7.872 3.669 0.016 0.048 9.625 0.164C16.824 54.567 21.142 50.35 25.68 49.869zM94.352 59.466l-1.076 0.284-0.416 1.049-0.186 0.503 1.068 0.143 1.802-2.054 0.035-0.035 0.825-0.527-0.842 0.348L94.352 59.466zM9.497 57.658L8.51 56.462l0.005 0.032L8.231 56.34c-0.029-0.015-0.026-0.05-0.044-0.073l-1.992 1.009c0.166 0.292 0.324 0.45 0.706 0.572h2.747L9.497 57.658zM76.033 56.293l0.299-1.129 0.432-1.016 0.524-0.904 0.617-0.791 0.669-0.697 0.71-0.595 0.73-0.504 0.75-0.408 0.729-0.328 0.691-0.256 0.636-0.186 0.242-0.032-0.066-0.224-0.067-0.182-0.575 0.098-0.888 0.246-0.972 0.357-0.979 0.508-0.481 0.294-0.474 0.326 0.025 0.012-0.028-0.01-0.013 0.009 0.01-0.01-0.001-0.001-0.651 0.621-0.165 0.194 0.003 0.001-0.21 0.268-0.313 0.454-0.367 0.642-0.198 0.476-0.118 0.335c-0.034 0.069-0.104 0.123-0.182 0.123-0.016 0-0.028-0.002-0.039-0.004l-6.469-1.205c-0.021 0.02-0.05 0.02-0.076 0.03l-4.767 4.355-1.024 0.96c-0.014 0.021-0.033 0.016-0.053 0.023l-0.028 0.026c-0.034 0.022-0.071 0.035-0.117 0.045l-3.77 0.333-0.028 0.05c-0.026 0.054-0.088 0.089-0.148 0.089l-21.498 1.915 1.296 0.439 2.338 0.734 22.385-0.102 0.368-0.021 0.311-0.046-0.028-0.022 0.004-0.002v-0.001l0.037-0.016 9.609-4.187c0.026-0.013 0.056-0.019 0.082-0.019 0.074 0 0.146 0.043 0.176 0.115 0.014 0.027 0.016 0.056 0.016 0.081 0 0.074-0.043 0.145-0.113 0.177l-9.521 4.154 11.063-0.028-0.313-1.42-0.175-1.507v-1.387L76.033 56.293zM38.673 43.58c0.025-0.017 0.052-0.024 0.081-0.022 0.042-0.002 0.083 0.017 0.122 0.047 0.04 0.04 0.062 0.097 0.062 0.155 0 0.012 0 0.022-0.002 0.037l-0.612 2.504-0.284 1.226 0.742-0.059 0.611-0.068 0.608-4.08c0-0.077 0.054-0.128 0.111-0.151l0.854-0.35 0.922-0.316 0.986-0.308 1.067-0.277 2.287-0.479 2.471-0.36 2.605-0.234 2.698-0.062 2.717 0.122 2.508 0.289c0.016-0.011 0.026-0.026 0.045-0.033 0.015-0.002 0.03-0.006 0.047-0.006 0.054 0 0.098 0.026 0.135 0.062l0.555 0.036 0.738 0.062 0.852 0.103 0.943 0.143 1.035 0.184 1.099 0.215 2.369 0.543 2.491 0.685 2.533 0.819 2.471 0.953 0.042 0.019 1.901-0.102 2.172-0.113 2.246-0.093 2.276-0.029 2.267 0.06 2.226 0.194 2.143 0.339 2.02 0.51c0.095 0.021 0.152 0.105 0.15 0.19 0 0.015-0.002 0.027-0.002 0.043-0.021 0.088-0.098 0.142-0.177 0.146l1.914 0.308 1.872 0.433 0.698 0.149-0.24-0.964c-0.004-0.015-0.006-0.029-0.006-0.045 0-0.047 0.013-0.102 0.056-0.139l0.21-0.164-0.523-0.709-0.407-0.518-1.247 0.289c-0.02 0.004-0.033 0.006-0.048 0.006-0.072-0.002-0.135-0.045-0.174-0.105-0.013-0.027-0.021-0.058-0.021-0.089 0-0.05 0.017-0.104 0.058-0.141l1.736-1.614-0.302 0.109c-0.021 0.008-0.041 0.008-0.058 0.008-0.056 0-0.105-0.022-0.146-0.056-0.037-0.035-0.06-0.088-0.061-0.146l-2.208 0.698c-0.015 0.002-0.028 0.002-0.043 0.002-0.05 0-0.102-0.015-0.135-0.05-0.043-0.033-0.066-0.089-0.066-0.146 0-0.008-0.004-0.025 0.003-0.038l0.069-0.229-1.769 0.292-0.315 0.057 0.249 0.165c0.051 0.033 0.086 0.091 0.086 0.151 0 0 0 0.017 0 0.021 0 0.07-0.037 0.134-0.099 0.169L89.14 44.75c-0.022 0.008-0.048 0.017-0.076 0.017-0.015 0-0.025-0.002-0.029-0.004l-1.64-0.132-1.734-0.194-3.608-0.564-1.825-0.378-1.823-0.43-1.776-0.49-1.702-0.564-0.759-0.275-0.694-0.277-0.757-0.267-0.438-0.111-0.251-0.077-0.14-0.025-0.796 0.499c-0.028 0.017-0.062 0.027-0.095 0.027-0.015 0-0.025-0.002-0.029-0.002l-1.536-0.186-1.588-0.182-3.31-0.35L61.1 40.485l-3.472-0.213-3.463-0.103-3.401 0.052-3.276 0.225-1.557 0.194-1.493 0.244-0.79 0.205-0.871 0.246-1.873 0.573-2.02 0.666-2.14 0.734-4.375 1.658-2.111 0.858-1.519 0.625-0.044 0.019 1.466 0.438L38.673 43.58zM94.554 52.169c-0.01 0.002-0.019 0-0.024 0-0.062 0-0.118-0.037-0.146-0.083-0.023-0.028-0.033-0.066-0.033-0.102 0-0.028 0.006-0.06 0.019-0.084l1.266-2.845 0.651-1.507-2.19-0.586-2.478-0.438-2.53-0.277-2.561-0.132-2.54-0.011-2.51 0.081-2.428 0.153-1.393 0.094 5.268 2.113 0.161-0.006c0.043-0.001 0.083 0.014 0.116 0.037l0.587-0.109 0.978-0.06 1.019 0.05 1.037 0.175 1.006 0.246 0.957 0.349 0.882 0.44 0.024 0.013 0.738 0.512c0.054 0.037 0.082 0.099 0.08 0.163 0 0.039-0.01 0.077-0.031 0.116-0.041 0.054-0.103 0.08-0.165 0.08-0.041 0-0.08-0.012-0.115-0.03l-0.37-0.297-0.336-0.232-0.005 0.029-0.012-0.007-0.827-0.422-0.909-0.335-0.981-0.246-0.989-0.164-0.991-0.051-0.93 0.051-0.466 0.087 0.201 0.484 0.948-0.04 1.262 0.062 1.286 0.194 0.638 0.176 0.639 0.236 0.627 0.318 0.607 0.38 0.598 0.463 0.596 0.555 0.557 0.657 0.522 0.749 0.514 0.872 0.461 0.973c0.015 0.026 0.015 0.054 0.015 0.072l-0.001 0.65 0.013 0.3 0.688 0.035 0.603 0.008 1.014-0.861 1.084-1.001 1.032-1.071 0.538-0.641 0.338-0.436v-0.015L94.554 52.169zM13.506 59.82l3.593-1.674 0.654-3.254 0.014-0.047 0.165-0.308 0.216-0.381 0.533-0.87 0.719-0.975 0.887-0.976 0.019-0.031 1.141-0.914 0.669-0.41 0.731-0.35 0.803-0.276 0.873-0.206 0.937-0.124 0.545 0.021 0.087-0.002c0.033-0.022 0.071-0.037 0.112-0.037 0.029 0 0.06 0.006 0.09 0.022 0.005 0.002 0.007 0.008 0.011 0.01l0.057-0.001 0.082-0.06 0.748-0.606 0.026-0.008 1.016-0.576 0.354-0.155 0.396-0.203 0.597-0.245 0.077-0.021-0.18-0.055-0.363-0.108-0.854-0.237 0.013 0.009-2.59 0.572-2.53 0.717-2.57 0.889-1.332 0.521-0.709 0.271-0.65 0.279 0.019 0.005 0.007 0.002-1.285 1.21L16.6 51.267l-5.285 2.893c-0.031 0.019-0.066 0.027-0.099 0.027-0.004 0-0.008-0.003-0.012-0.003l-0.181 0.1-0.142 0.063c-0.022 0.011-0.043 0.012-0.065 0.012h-0.04c-0.008 0-0.015-0.006-0.022-0.007l-0.032 0.021-0.652 0.489-0.35 0.28-0.316 0.291 0.004 0.003 0.004-0.002L9.41 55.437l0.025 0.016-0.051 0.061 0.234-0.08 0.035-0.01 6.024-1.004c0.01-0.002 0.025-0.007 0.042-0.007 0.092 0 0.168 0.07 0.181 0.165 0.002 0.013 0.004 0.026 0.004 0.041 0 0.091-0.072 0.165-0.163 0.182l-2.969 0.467L9.73 55.778l0.02 0.022-0.783 0.277c-0.015 0.013-0.024 0.031-0.044 0.037l-0.177 0.062c0.005 0.005 0.01 0.009 0.014 0.013l1.987 2.436 0.163 0.182 0.025 0.026 0.094 0.146c0.011 0.021 0.023 0.045 0.023 0.07l0.031 0.222c0.002 0.015 0.004 0.027 0.004 0.037 0 0.035-0.015 0.062-0.029 0.089l-0.124 0.214-0.159 0.271c-0.002 0.044-0.039 0.058-0.041 0.064l-1.808 1.566-0.271 0.241 0.69-0.03 1.86-0.851L13.506 59.82zM16.354 50.938l-0.005-0.002-0.031-0.007 0.427-0.406-0.585 0.281-1.617 0.921-1.638 1.063-0.286 0.191 1.262-0.679L16.354 50.938zM71.048 50.784l0.178-0.204 1.784-1.718 1.27-1.069 0.401-0.344 0.059-0.043 0.046-0.039 1.043-0.771-10.24 1.637-0.916 1.92-0.474 1.031 5.44 1.085L71.048 50.784zM37.397 60.098l13.957-1.184 8.345-0.728 3.921-6.646-2.686-0.593-4.278-0.855c-0.021-0.006-0.033-0.023-0.051-0.034l-21.898 2.64 1.477 4.1L37.397 60.098zM64.839 47.863l-2.637-1.898-1.458 0.116c-0.019 0.015-0.033 0.033-0.057 0.042-0.017 0.004-0.033 0.006-0.047 0.006-0.037 0-0.069-0.015-0.099-0.032l-10.51 0.834-7.988 0.653-1.35 0.176v0c-0.013 0.002-0.023 0.002-0.033 0.002-0.051 0-0.096-0.022-0.123-0.049-0.002-0.001-0.001-0.004-0.002-0.005l-2.682 0.22c-0.007 0.019-0.007 0.039-0.019 0.056l-3.197 4.26 22.053-2.59L64.839 47.863zM37.315 60.692c-0.059 0-0.108-0.034-0.145-0.079 0 0-0.145-0.292-0.133-0.308l-2.798-7.634c-0.003-0.001-0.006-0.001-0.009-0.001l-0.001-0.001c-0.001 0-0.001 0.001-0.002 0.001-0.008 0-0.017 0.002-0.027 0.002-0.018 0-0.029-0.014-0.045-0.02l-1 0.091-0.359 0.041 0.307 0.359 0.514 0.771 0.473 0.914 0.38 1.094v0.025l0.237 1.255v0.019l0.05 1.437-0.05 0.81-0.124 0.851-0.186 0.914L34.2 61.938l6.992-0.01C41.191 61.929 37.321 60.692 37.315 60.692zM34.258 52.111l2.905-4.024-0.545 0.031-1.026-0.021-1.898-0.172-1.822-0.268-0.946-0.146-0.775-0.094-0.199 0.065-0.206 0.081-0.42 0.165-0.591 0.266-0.613 0.326-0.84 0.529-0.368 0.267L27 49.12l0.872 0.093 1.039 0.165 1.139 0.288 1.183 0.409 1.16 0.573 0.025 0.013 1.038 0.74 0.021 0.021 0.728 0.761L34.258 52.111zM57.7 49.889l1.542 0.327-0.19-0.132-0.022-0.021-0.173-0.173c-0.024-0.025-0.037-0.049-0.05-0.074l-0.03-0.09c-0.007-0.021-0.009-0.039-0.009-0.058 0-0.001 0.001-0.003 0.001-0.005L57.7 49.889zM65.525 47.817l10.51-1.67-0.663-0.328-0.952-0.444h-0.022c-0.056 0-0.102-0.03-0.136-0.072l-8.561 0.445-2.893 0.161 2.698 1.867C65.52 47.787 65.516 47.806 65.525 47.817zM64.818 48.898l0.27-0.574-0.885 0.188c0.021 0.029 0.046 0.057 0.045 0.096v0.037l-0.021 0.157-0.013 0.047-0.072 0.154-0.226 0.458c0.007 0.016 0.021 0.026 0.022 0.043 0.002 0.015 0.004 0.027 0.004 0.042 0 0.089-0.068 0.158-0.153 0.174l-0.325 0.663-0.164 0.321c-0.022 0.033-0.05 0.06-0.083 0.07L62.95 50.93c-0.021 0.009-0.043 0.022-0.072 0.022l-0.077 0.006 0.929 0.188L64.818 48.898zM62.965 50.515l-0.015 0.003 0.005-0.008 0.022-0.003 0.021-0.012 0.066-0.125-0.11 0.139 0.158-0.297 0.205-0.416-2.842 0.437 1.788 0.331 0.158 0.053 0.12 0.016-0.021-0.029h0.004l0.018 0.029 0.007 0.001 0.144-0.014 0.097-0.01-0.034-0.013 0.16-0.055L62.965 50.515zM59.276 49.792l0.009-0.032 0.004 0.003v0l0.002 0.002 0.253 0.181 0.03 0.037 3.951-0.607 0.264-0.534 0.068-0.069 0.022-0.048h-0.001l-0.03 0.012 0.002-0.005-0.002 0.001 0.015-0.025 0.017-0.033-0.035-0.019-0.04-0.003-0.004 0.001 0.021 0.028-0.201 0.031-2.515 0.539-1.922 0.437 0.02 0.033 0.065 0.065L59.276 49.792zM92.575 56.362c-0.035-0.032-0.06-0.077-0.064-0.13l0.003-0.271c-0.517-2.525-2.239-4.611-4.541-5.641l-0.388-0.147-0.612-0.163-1.236-0.194-1.216-0.05-1.189 0.05-0.024 0.002c-0.031 0-0.058-0.013-0.084-0.028l-0.295 0.067-0.611 0.163-0.664 0.254-0.706 0.315-0.018 0.01c-2.461 1.348-4.134 3.958-4.134 6.952 0 4.382 3.563 7.926 7.939 7.926 4.388 0 7.939-3.544 7.939-7.926C92.674 57.146 92.634 56.751 92.575 56.362zM26.526 50.186c-4.068 0-7.378 3.304-7.378 7.365 0 4.072 3.31 7.366 7.378 7.366 4.079 0 7.379-3.294 7.379-7.366C33.905 53.489 30.605 50.186 26.526 50.186z" fill="#ed1703" data-fill-palette-color="accent"></path></svg></g></svg></g></svg></g></svg></g><g></g></svg></g><defs></defs></svg><rect width="307.90612294601294" height="247.2" fill="none" stroke="none" visibility="hidden"></rect></g></svg></g></svg>