<svg width="16" height="15" viewBox="0 0 16 15" fill="none" xmlns="http://www.w3.org/2000/svg">
<path d="M5.805 6.40167C6.58695 7.7754 7.7246 8.91305 9.09833 9.695L9.835 8.66333C9.95346 8.49745 10.1286 8.38073 10.3273 8.33528C10.526 8.28982 10.7345 8.31878 10.9133 8.41667C12.0919 9.06077 13.3935 9.44815 14.7325 9.55333C14.9415 9.56989 15.1365 9.66461 15.2788 9.8186C15.421 9.97259 15.5 10.1745 15.5 10.3842V14.1025C15.5 14.3088 15.4235 14.5078 15.2853 14.661C15.1471 14.8142 14.9569 14.9106 14.7517 14.9317C14.31 14.9775 13.865 15 13.4167 15C6.28333 15 0.5 9.21667 0.5 2.08333C0.5 1.635 0.5225 1.19 0.568333 0.748333C0.589379 0.543081 0.68582 0.352934 0.838991 0.214695C0.992163 0.076456 1.19117 -4.44648e-05 1.3975 1.93894e-08H5.11583C5.32547 -2.62654e-05 5.52741 0.0789596 5.6814 0.221209C5.83539 0.363458 5.93011 0.55852 5.94667 0.7675C6.05185 2.10649 6.43923 3.40807 7.08333 4.58667C7.18122 4.76547 7.21018 4.97395 7.16472 5.17266C7.11927 5.37137 7.00255 5.54654 6.83667 5.665L5.805 6.40167ZM3.70333 5.85417L5.28667 4.72333C4.83732 3.75341 4.52946 2.72403 4.3725 1.66667H2.175C2.17 1.805 2.1675 1.94417 2.1675 2.08333C2.16667 8.29667 7.20333 13.3333 13.4167 13.3333C13.5558 13.3333 13.695 13.3308 13.8333 13.325V11.1275C12.776 10.9705 11.7466 10.6627 10.7767 10.2133L9.64583 11.7967C9.19055 11.6198 8.74834 11.4109 8.3225 11.1717L8.27417 11.1442C6.63965 10.2139 5.28607 8.86035 4.35583 7.22583L4.32833 7.1775C4.08909 6.75166 3.88024 6.30945 3.70333 5.85417Z" fill="#C7CAD1"/>
</svg>
