<svg width="21" height="21" viewBox="0 0 21 21" fill="none" xmlns="http://www.w3.org/2000/svg">
<path d="M17.7561 3.13331C15.7993 1.18331 13.1902 0.0999756 10.4362 0.0999756C4.7108 0.0999756 0.0724728 4.7222 0.0724728 10.4278C0.0724728 12.2333 0.579791 14.0389 1.44948 15.5555L0 20.9L5.50802 19.4555C7.02997 20.25 8.69686 20.6833 10.4362 20.6833C16.1617 20.6833 20.8 16.0611 20.8 10.3555C20.7275 7.68331 19.7129 5.08331 17.7561 3.13331ZM15.4369 14.1111C15.2195 14.6889 14.2049 15.2666 13.6976 15.3389C13.2627 15.4111 12.6829 15.4111 12.1031 15.2666C11.7408 15.1222 11.2334 14.9778 10.6537 14.6889C8.0446 13.6055 6.3777 11.0055 6.23275 10.7889C6.08781 10.6444 5.14565 9.41664 5.14565 8.11664C5.14565 6.81664 5.79791 6.23886 6.01533 5.94997C6.23275 5.66109 6.52265 5.66109 6.74007 5.66109C6.88502 5.66109 7.10244 5.66109 7.24738 5.66109C7.39233 5.66109 7.60975 5.58886 7.82718 6.09442C8.0446 6.59998 8.55191 7.89997 8.62439 7.9722C8.69686 8.11664 8.69686 8.26109 8.62439 8.40553C8.55191 8.54998 8.47944 8.69442 8.33449 8.83886C8.18954 8.98331 8.0446 9.19997 7.97212 9.2722C7.82717 9.41664 7.68223 9.56108 7.82718 9.77775C7.97212 10.0666 8.47944 10.8611 9.27665 11.5833C10.2913 12.45 11.0885 12.7389 11.3784 12.8833C11.6683 13.0278 11.8132 12.9555 11.9582 12.8111C12.1031 12.6666 12.6105 12.0889 12.7554 11.8C12.9003 11.5111 13.1178 11.5833 13.3352 11.6555C13.5526 11.7278 14.8571 12.3778 15.0746 12.5222C15.3645 12.6666 15.5094 12.7389 15.5819 12.8111C15.6544 13.0278 15.6544 13.5333 15.4369 14.1111Z" fill="#48D107"/>
</svg>
