<svg width="34" height="34" viewBox="0 0 34 34" fill="none" xmlns="http://www.w3.org/2000/svg">
<path d="M12.6596 21.3404C12.1821 21.0221 11.8448 18.1133 12.0479 14.2773C17.2352 13.8464 24.6617 14.0326 33.9975 16.704C33.9992 16.8025 34 16.9011 34 17C34 19.6319 33.4019 22.1242 32.3342 24.3482C26.1738 21.8049 19.6139 21.682 15.8128 21.6108C14.1283 21.5792 12.9856 21.5578 12.6596 21.3404Z" fill="#CD0000"/>
<path d="M29.9886 27.9686C26.8702 31.6575 22.2086 34 17 34C7.61116 34 0 26.3888 0 17C0 10.1911 4.00297 4.31712 9.78394 1.60307C8.73873 5.27259 8.12405 8.60734 7.81649 11.552C5.41437 12.0845 3.78035 12.6887 2.8936 13.0213C1.44679 13.5638 2 16 3.97871 15.5532C4.25866 15.5132 4.65799 15.4295 5.17329 15.3216C5.8057 15.1891 6.61297 15.02 7.58835 14.8501C7.36004 21.9485 9.01678 26.0426 10.1276 26.0426C10.3253 26.0426 10.6611 26.0296 11.1124 26.0122C14.301 25.8891 23.2536 25.5437 29.9886 27.9686Z" fill="#CD0000"/>
<path d="M15.4095 0.0734224C13.7584 3.2993 12.8246 7.21711 12.3627 10.8084C17.4244 10.2515 24.3946 10.3227 33.353 12.3387C31.3267 5.21609 24.7725 0 17 0C16.4637 0 15.9331 0.0248366 15.4095 0.0734224Z" fill="#CD0000"/>
</svg>
