<svg xmlns="http://www.w3.org/2000/svg" version="1.1" xmlns:xlink="http://www.w3.org/1999/xlink" xmlns:svgjs="http://svgjs.com/svgjs" width="1000" height="111"><svg xmlns="http://www.w3.org/2000/svg" version="1.1" xmlns:xlink="http://www.w3.org/1999/xlink" xmlns:svgjs="http://svgjs.dev/svgjs" width="1000" height="111" viewBox="0 0 1000 111"><g transform="matrix(1,0,0,1,-0.6060240435809874,0.601322226862969)"><svg viewBox="0 0 396 44" data-background-color="#ffffff" preserveAspectRatio="xMidYMid meet" height="111" width="1000" xmlns="http://www.w3.org/2000/svg" xmlns:xlink="http://www.w3.org/1999/xlink"><g id="SvgjsG1004" transform="matrix(1,0,0,1,0.23998558091832933,-0.2383619638015375)"><svg viewBox="0 0 395.5199999999999 44.47672201857094" height="44.47672201857094" width="395.5199999999999"><g><svg viewBox="0 0 511.5096125676884 57.5199" height="44.47672201857094" width="395.5199999999999"><g><svg viewBox="0 0 511.5096125676884 57.5199" height="57.5199" width="511.5096125676884"><g id="SvgjsG1003"><svg viewBox="0 0 511.5096125676884 57.5199" height="57.5199" width="511.5096125676884" id="SvgjsSvg1002"><g><svg viewBox="0 0 511.5096125676884 57.5199" height="57.5199" width="511.5096125676884"><g><svg><g></g><g></g></svg></g><g><svg><g><svg></svg></g><g></g></svg></g><g id="SvgjsG1001"><svg viewBox="0 0 511.5096125676884 57.5199" height="57.5199" width="511.5096125676884"><g transform="matrix(1,0,0,1,0,0)"><svg width="319.9595" viewBox="1.9500000476837158 -35.20000076293945 197.74000549316406 35.54999923706055" height="57.5199" data-palette-color="#cd0000"><path d="M1.95-34.75L26.2-34.75 26.2-30.1 16.95-30.1 16.95 0 11.25 0 11.25-30.1 1.95-30.1 1.95-34.75ZM47.8 0.35Q42.95 0.35 38.87-1.93 34.8-4.2 32.42-8.28 30.05-12.35 30.05-17.45L30.05-17.45Q30.05-22.55 32.42-26.6 34.8-30.65 38.87-32.93 42.95-35.2 47.8-35.2L47.8-35.2Q52.7-35.2 56.77-32.93 60.85-30.65 63.2-26.6 65.55-22.55 65.55-17.45L65.55-17.45Q65.55-12.35 63.2-8.28 60.85-4.2 56.77-1.93 52.7 0.35 47.8 0.35L47.8 0.35ZM47.8-4.6Q51.25-4.6 53.95-6.18 56.65-7.75 58.17-10.68 59.7-13.6 59.7-17.45L59.7-17.45Q59.7-21.3 58.17-24.2 56.65-27.1 53.95-28.65 51.25-30.2 47.8-30.2L47.8-30.2Q44.35-30.2 41.65-28.65 38.95-27.1 37.42-24.2 35.9-21.3 35.9-17.45L35.9-17.45Q35.9-13.6 37.42-10.68 38.95-7.75 41.65-6.18 44.35-4.6 47.8-4.6L47.8-4.6ZM82.6 0.35Q79.1 0.35 76.3-0.88 73.5-2.1 71.9-4.35 70.3-6.6 70.3-9.6L70.3-9.6 76.4-9.6Q76.6-7.35 78.17-5.9 79.75-4.45 82.6-4.45L82.6-4.45Q85.55-4.45 87.2-5.88 88.85-7.3 88.85-9.55L88.85-9.55Q88.85-11.3 87.82-12.4 86.8-13.5 85.27-14.1 83.75-14.7 81.05-15.4L81.05-15.4Q77.65-16.3 75.52-17.23 73.4-18.15 71.9-20.1 70.4-22.05 70.4-25.3L70.4-25.3Q70.4-28.3 71.9-30.55 73.4-32.8 76.1-34 78.8-35.2 82.35-35.2L82.35-35.2Q87.4-35.2 90.62-32.68 93.85-30.15 94.2-25.75L94.2-25.75 87.9-25.75Q87.75-27.65 86.1-29 84.45-30.35 81.75-30.35L81.75-30.35Q79.3-30.35 77.75-29.1 76.2-27.85 76.2-25.5L76.2-25.5Q76.2-23.9 77.17-22.88 78.15-21.85 79.65-21.25 81.15-20.65 83.75-19.95L83.75-19.95Q87.2-19 89.37-18.05 91.55-17.1 93.07-15.13 94.6-13.15 94.6-9.85L94.6-9.85Q94.6-7.2 93.17-4.85 91.75-2.5 89.02-1.07 86.3 0.35 82.6 0.35L82.6 0.35ZM99.44-17.45Q99.44-22.55 101.82-26.6 104.19-30.65 108.27-32.93 112.34-35.2 117.19-35.2L117.19-35.2Q122.74-35.2 127.07-32.48 131.39-29.75 133.34-24.75L133.34-24.75 126.49-24.75Q125.14-27.5 122.74-28.85 120.34-30.2 117.19-30.2L117.19-30.2Q113.74-30.2 111.04-28.65 108.34-27.1 106.82-24.2 105.29-21.3 105.29-17.45L105.29-17.45Q105.29-13.6 106.82-10.7 108.34-7.8 111.04-6.23 113.74-4.65 117.19-4.65L117.19-4.65Q120.34-4.65 122.74-6 125.14-7.35 126.49-10.1L126.49-10.1 133.34-10.1Q131.39-5.1 127.07-2.4 122.74 0.3 117.19 0.3L117.19 0.3Q112.29 0.3 108.24-1.98 104.19-4.25 101.82-8.3 99.44-12.35 99.44-17.45L99.44-17.45ZM163.44 0L160.94-7.1 146.39-7.1 143.89 0 137.94 0 150.39-34.8 156.99-34.8 169.44 0 163.44 0ZM147.99-11.75L159.34-11.75 153.69-27.9 147.99-11.75ZM199.69 0L192.89 0 184.89-13.9 180.54-13.9 180.54 0 174.84 0 174.84-34.75 186.84-34.75Q190.84-34.75 193.61-33.35 196.39-31.95 197.76-29.6 199.14-27.25 199.14-24.35L199.14-24.35Q199.14-20.95 197.16-18.18 195.19-15.4 191.09-14.4L191.09-14.4 199.69 0ZM180.54-30.1L180.54-18.45 186.84-18.45Q190.04-18.45 191.66-20.05 193.29-21.65 193.29-24.35L193.29-24.35Q193.29-27.05 191.69-28.58 190.09-30.1 186.84-30.1L186.84-30.1 180.54-30.1Z" opacity="1" transform="matrix(1,0,0,1,0,0)" fill="#cd0000" class="undefined-text-0" data-fill-palette-color="primary"></path></svg></g><g><svg xmlns="http://www.w3.org/2000/svg" xmlns:xlink="http://www.w3.org/1999/xlink" version="1.1" x="333.5396" y="0" viewBox="12.794997215270996 35.04762268066406 77.20498657226562 24.952648162841797" enable-background="new 0 0 100 100" xml:space="preserve" height="57.5199" width="177.9700125676884" class="icon-s-0" data-fill-palette-color="accent" id="SvgjsSvg1000"><g fill="#cd0000" data-fill-palette-color="accent"><path d="M59.664 42.758c-0.196-0.375-0.273-0.676-0.274-0.915C59.349 42.334 59.664 42.758 59.664 42.758z" fill="#cd0000" data-fill-palette-color="accent"></path><path d="M88.396 42.835c0 0-7.012-1.421-11.178-1.215l-4.967-4.218c0 0-0.31-0.596-1.914-0.828 0 0-3.908-0.854-14.204-1.449 0 0-6.339-0.31-10.17 0.311 0 0-1.861 0.156-3.052 1.242l-5.641 4.502c0 0-0.931-0.153-0.982 0.519l-8.693 0.983c0 0-0.308 0.012-0.829 0.038l-6.157 1.928c0 0 0.379-0.259 0.827-0.932l5.33-0.996c-2.86 0.144-12.228 0.701-13.453 1.928v4.14l-0.518 0.646 0.259 0.491c0 0-0.388 2.459 1.526 3.182l6.442 0.415c0 0 0.465 3.881 2.872 4.606 0 0 5.123 1.604 6.467-2.691l11.774 0.699c0 0 0.904 2.923 2.25 3.725 0 0 4.14 0.699 5.718-1.035 0 0 1.216-1.138 1.682-3.053l15.653-1.138 5.64-0.622c0 0 0.803 2.433 1.839 2.847 0 0 3.725 0.672 5.044-1.139 0 0 1.164-1.552 1.217-3.233l6.08-1.476c0 0 1.526-0.388 2.742-3.647L88.396 42.835zM68.836 37.402c0 0 0.621 0.363 0.775 1.086l1.501 3.824h-0.827l-1.863-4.91H68.836zM19.763 46.99l16.577 0.917-10.556-0.383c-1.192 0.135-4.711-0.393-4.711-0.393C20.91 47.087 20.403 47.037 19.763 46.99l-4.02-0.222C15.743 46.769 18.166 46.874 19.763 46.99zM20.97 47.524c0 0 0.787 0.204 2.188 0.417l7.97 0.449c0.166-0.006 0.332-0.011 0.502-0.019l4.71 0.311-5.212-0.292c-3.427 0.103-6.193-0.18-7.97-0.449l-7.415-0.417H20.97zM16.882 51.582v-0.674h2.743l0.311 0.674H16.882zM23.093 54.168l-0.312-2.187 3.727 0.299 0.258 2.348L23.093 54.168zM20.919 48.683l-5.176-0.579 20.803 1.036-5.07-0.042C28.474 49.305 20.919 48.683 20.919 48.683zM36.028 52.719h-3.363l-0.258-0.879h3.621V52.719zM38.615 50.856c-0.206 0.155-0.776 3.312-0.776 3.312-0.155 1.035-1.138 0-1.138 0-0.569-0.413-0.673-3.208-0.673-3.208 0-0.414 0.673-0.775 0.673-0.775h1.294c0.25 0 0.471 0.149 0.62 0.287 0.002 0 2.227 0.023 2.795 0.074C41.41 50.546 39.135 51.012 38.615 50.856zM43.272 52.719h-3.208v-1.137l3.208-0.338V52.719zM48.448 57.791c-1.287 0-2.329-1.622-2.329-3.623s1.042-3.622 2.329-3.622c1.285 0 2.327 1.621 2.327 3.622S49.733 57.791 48.448 57.791zM31.682 45.63c0 0-0.052-1.034-1.034-1.447l24.89-1.243L31.682 45.63zM56.468 42.312c0 0-14.548-1.672-17.075-1.403l4.657-3.868c0 0 8.071-0.699 15.368 0l-1.397 4.424C58.021 41.465 57.555 42.539 56.468 42.312zM61.063 42.758c-0.432 0.415-1.038 0.182-1.038 0.182l-0.155 0.156c-0.181 0.375 0.155 0.62 0.155 0.62l-1.177-0.078 0.815-0.88-0.815-0.026 0.62-1.822 0.933-3.145c0.155-0.568 0.724-0.724 0.724-0.724h6.625c0.775 0.518 2.12 5.271 2.12 5.271L61.063 42.758zM70.062 43.925c0 0-0.33 0.005-0.428 0.267h-0.223c0 0 0.143-0.418 0.459-0.457l1.346-0.067c0 0 0.202-0.116 0.069 0.524h-0.36l0.03-0.267H70.062zM71.448 45.25c-0.096 0-0.175-0.113-0.175-0.253 0-0.141 0.079-0.253 0.175-0.253 0.097 0 0.175 0.112 0.175 0.253C71.623 45.137 71.545 45.25 71.448 45.25zM78.395 54.661c-1.092 0-1.978-1.443-1.978-3.223s0.886-3.221 1.978-3.221c1.095 0 1.979 1.441 1.979 3.221S79.489 54.661 78.395 54.661z" fill="#cd0000" data-fill-palette-color="accent"></path><path d="M15.743 46.769l4.02 0.222C18.166 46.874 15.743 46.769 15.743 46.769z" fill="#cd0000" data-fill-palette-color="accent"></path><path d="M20.97 47.524h-5.227l7.415 0.417C21.757 47.729 20.97 47.524 20.97 47.524z" fill="#cd0000" data-fill-palette-color="accent"></path><path d="M31.63 48.372c-0.17 0.008-0.336 0.013-0.502 0.019l5.212 0.292L31.63 48.372z" fill="#cd0000" data-fill-palette-color="accent"></path></g></svg></g></svg></g></svg></g></svg></g></svg></g></svg></g><defs></defs></svg><rect width="395.5199999999999" height="44.47672201857094" fill="none" stroke="none" visibility="hidden"></rect></g></svg></g></svg><style>@media (prefers-color-scheme: light) { :root { filter: none; } }
</style></svg>